<?xml version="1.0" encoding="UTF-8"?>
<svg version="1.1" xmlns="http://www.w3.org/2000/svg" width="500" height="500">
<path d="M0 0 C0.84304688 -0.03996094 1.68609375 -0.07992187 2.5546875 -0.12109375 C6.20599324 0.6724271 7.96921703 2.53832958 10.125 5.4375 C12.22514348 8.81257235 14.08758757 12.29533455 15.9375 15.8125 C16.45795898 16.78678955 16.97841797 17.7610791 17.51464844 18.76489258 C18.56287577 20.72862136 19.60768558 22.69417856 20.64892578 24.66162109 C21.97541033 27.15618433 23.32248025 29.63749541 24.68359375 32.11328125 C25.41408877 33.45050649 26.14455949 34.78774499 26.875 36.125 C27.37737183 37.03161377 27.37737183 37.03161377 27.88989258 37.95654297 C29.3667045 40.69232215 30.125 42.27062758 30.125 45.4375 C30.785 45.4375 31.445 45.4375 32.125 45.4375 C32.47949219 46.18128906 32.83398438 46.92507812 33.19921875 47.69140625 C37.04718848 55.58300518 41.21842292 63.24508249 45.5625 70.875 C53.44606254 84.73510329 53.44606254 84.73510329 56.9375 91.1875 C57.87529297 92.91226563 57.87529297 92.91226563 58.83203125 94.671875 C60.125 97.4375 60.125 97.4375 60.125 100.4375 C60.785 100.4375 61.445 100.4375 62.125 100.4375 C63.16072896 102.17872549 64.1781252 103.93086595 65.1875 105.6875 C65.75597656 106.66203125 66.32445312 107.6365625 66.91015625 108.640625 C68.125 111.4375 68.125 111.4375 67.80859375 113.796875 C67.58300781 114.33828125 67.35742188 114.8796875 67.125 115.4375 C65.64 114.4475 65.64 114.4475 64.125 113.4375 C64.125 114.0975 64.125 114.7575 64.125 115.4375 C65.0221875 115.8396875 65.0221875 115.8396875 65.9375 116.25 C68.12347854 117.43667406 69.53832594 118.53349113 71.125 120.4375 C71.125 121.0975 71.125 121.7575 71.125 122.4375 C71.785 122.4375 72.445 122.4375 73.125 122.4375 C74.50990744 124.2811029 75.80888849 126.18972264 77.0625 128.125 C77.75214844 129.18074219 78.44179688 130.23648438 79.15234375 131.32421875 C80.12880859 132.86529297 80.12880859 132.86529297 81.125 134.4375 C81.70378906 135.33082031 82.28257812 136.22414063 82.87890625 137.14453125 C84.125 139.4375 84.125 139.4375 84.125 142.4375 C81.50312506 141.38875002 80.33128639 140.78818687 78.875 138.3125 C78.6275 137.69375 78.38 137.075 78.125 136.4375 C77.465 136.4375 76.805 136.4375 76.125 136.4375 C76.125 135.7775 76.125 135.1175 76.125 134.4375 C75.56039062 134.18484375 74.99578125 133.9321875 74.4140625 133.671875 C71.81278898 132.26914048 69.76208965 130.58853951 67.5 128.6875 C42.92214237 108.95397373 8.5941955 106.5585809 -21.875 107.4375 C-21.35740501 101.62161447 -18.96094062 97.15006227 -16.3125 92.0625 C-14.848125 89.21625 -13.38375 86.37 -11.875 83.4375 C0.335 83.4375 12.545 83.4375 25.125 83.4375 C22.01613644 77.87291766 22.01613644 77.87291766 18.90332031 72.31054688 C11.125 58.34881001 11.125 58.34881001 11.125 54.4375 C10.465 54.4375 9.805 54.4375 9.125 54.4375 C7.95092979 52.17022667 6.78560261 49.89915376 5.625 47.625 C5.29113281 46.98240234 4.95726562 46.33980469 4.61328125 45.67773438 C3.12260916 42.74202301 2.125 40.77623483 2.125 37.4375 C-0.26989543 38.18074341 -1.58277616 38.90807354 -2.80859375 41.12890625 C-3.54719923 42.87823501 -4.21549685 44.65684149 -4.875 46.4375 C-5.535 46.4375 -6.195 46.4375 -6.875 46.4375 C-6.875 47.7575 -6.875 49.0775 -6.875 50.4375 C-7.535 50.4375 -8.195 50.4375 -8.875 50.4375 C-8.875 51.7575 -8.875 53.0775 -8.875 54.4375 C-9.535 54.4375 -10.195 54.4375 -10.875 54.4375 C-10.97683594 55.12199219 -11.07867187 55.80648437 -11.18359375 56.51171875 C-12.01269992 60.02019626 -13.3922232 62.99505526 -14.9375 66.25 C-15.48535156 67.41144531 -16.03320312 68.57289063 -16.59765625 69.76953125 C-17.22994141 71.09017578 -17.22994141 71.09017578 -17.875 72.4375 C-18.535 72.4375 -19.195 72.4375 -19.875 72.4375 C-19.875 73.7575 -19.875 75.0775 -19.875 76.4375 C-20.535 76.4375 -21.195 76.4375 -21.875 76.4375 C-21.98714844 76.98921875 -22.09929687 77.5409375 -22.21484375 78.109375 C-22.98860773 80.83815211 -24.14317694 83.16522943 -25.4375 85.6875 C-25.89253906 86.57953125 -26.34757813 87.4715625 -26.81640625 88.390625 C-27.16574219 89.06609375 -27.51507813 89.7415625 -27.875 90.4375 C-28.535 90.4375 -29.195 90.4375 -29.875 90.4375 C-30.08048913 84.03751528 -30.2190207 77.63840155 -30.31445312 71.23583984 C-30.3542978 69.06526921 -30.40859622 66.89490773 -30.47851562 64.72509766 C-30.9392084 50.04390277 -29.7460103 39.91091256 -21.875 27.4375 C-20.83477644 25.52387243 -19.80597284 23.60395609 -18.79296875 21.67578125 C-17.88604694 20.03206541 -16.97600501 18.39006632 -16.0625 16.75 C-15.59908203 15.91017578 -15.13566406 15.07035156 -14.65820312 14.20507812 C-13.40666532 11.94371582 -12.14281488 9.68976143 -10.875 7.4375 C-10.33488281 6.46167969 -9.79476563 5.48585937 -9.23828125 4.48046875 C-6.75010149 0.75176384 -4.24682795 0.10972048 0 0 Z M-6.875 85.4375 C-9.24480013 88.39127498 -9.24480013 88.39127498 -8.875 92.4375 C-7.555 92.7675 -6.235 93.0975 -4.875 93.4375 C-5.205 90.7975 -5.535 88.1575 -5.875 85.4375 C-6.205 85.4375 -6.535 85.4375 -6.875 85.4375 Z M-10.875 93.4375 C-9.875 96.4375 -9.875 96.4375 -9.875 96.4375 Z M-4.875 94.4375 C-4.875 95.0975 -4.875 95.7575 -4.875 96.4375 C-3.555 96.7675 -2.235 97.0975 -0.875 97.4375 C-1.85350195 96.41645449 -2.85480427 95.4168879 -3.875 94.4375 C-4.205 94.4375 -4.535 94.4375 -4.875 94.4375 Z M-11.875 96.4375 C-10.875 98.4375 -10.875 98.4375 -10.875 98.4375 Z M3.125 97.4375 C3.125 98.7575 3.125 100.0775 3.125 101.4375 C4.04200684 101.4876123 4.95901367 101.53772461 5.90380859 101.58935547 C9.35209425 101.78124114 12.79988838 101.97959052 16.24755859 102.18212891 C17.73113794 102.26799834 19.21486283 102.35139438 20.69873047 102.43212891 C41.66315218 103.57718498 41.66315218 103.57718498 50.5625 107.625 C54.21505212 109.39595178 54.21505212 109.39595178 58.125 108.4375 C47.0001298 102.35030687 35.7420728 100.84713756 23.25 99.8125 C21.16387654 99.63172841 19.07804477 99.44809561 16.99240112 99.26187134 C15.11664985 99.09558593 13.24022405 98.9369608 11.36376953 98.77880859 C8.5590482 98.48324095 5.87568275 98.04811393 3.125 97.4375 Z M-12.875 98.4375 C-13.205 99.4275 -13.535 100.4175 -13.875 101.4375 C-12.885 101.1075 -11.895 100.7775 -10.875 100.4375 C-11.535 99.7775 -12.195 99.1175 -12.875 98.4375 Z M-6.875 101.4375 C-6.875 101.7675 -6.875 102.0975 -6.875 102.4375 C-4.895 102.4375 -2.915 102.4375 -0.875 102.4375 C-0.875 102.1075 -0.875 101.7775 -0.875 101.4375 C-2.855 101.4375 -4.835 101.4375 -6.875 101.4375 Z M58.125 109.4375 C58.125 110.0975 58.125 110.7575 58.125 111.4375 C60.105 112.0975 62.085 112.7575 64.125 113.4375 C62.83534824 112.06187146 61.49810707 110.72983607 60.125 109.4375 C59.465 109.4375 58.805 109.4375 58.125 109.4375 Z " fill="#F1F1F1" transform="translate(275.875,177.5625)"/>
<path d="M0 0 C0.06985219 10.97117609 0.12298879 21.94229831 0.15543652 32.91365242 C0.1710185 38.00941002 0.19211855 43.10501424 0.22631836 48.20068359 C0.25918041 53.12849283 0.276909 58.05615555 0.28463173 62.98406601 C0.29012747 64.85371071 0.30085762 66.7233484 0.31719017 68.59292984 C0.48072322 88.10836889 -2.48457742 104.68648468 -14 121 C-14.66 121 -15.32 121 -16 121 C-16 121.66 -16 122.32 -16 123 C-26.25013843 132.9188602 -37.71431858 138.86792713 -52 140 C-52.64195312 140.05414063 -53.28390625 140.10828125 -53.9453125 140.1640625 C-65.39519203 140.6429548 -77.24369193 137.98682541 -87 132 C-87.9590625 131.43539062 -87.9590625 131.43539062 -88.9375 130.859375 C-90.625 129.8125 -90.625 129.8125 -93 128 C-93 127.34 -93 126.68 -93 126 C-93.66 126 -94.32 126 -95 126 C-95 125.34 -95 124.68 -95 124 C-95.66 124 -96.32 124 -97 124 C-98.4375 122.390625 -98.4375 122.390625 -100 120.25 C-100.7734375 119.20585937 -100.7734375 119.20585937 -101.5625 118.140625 C-105.05962464 112.93295026 -105.05962464 112.93295026 -104.8671875 109.921875 C-103.735619 107.41407453 -102.4755658 106.64484125 -100.125 105.25 C-99.42632812 104.82203125 -98.72765625 104.3940625 -98.0078125 103.953125 C-96 103 -96 103 -93 103 C-93 102.34 -93 101.68 -93 101 C-89.91190305 99.23537317 -88.76687864 99 -85 99 C-84.69707031 99.59167969 -84.39414063 100.18335938 -84.08203125 100.79296875 C-79.11936904 110.15331316 -73.1766628 115.21893546 -63.08203125 118.65234375 C-55.03975076 119.99523862 -46.75972292 118.50648194 -40 114 C-38.65824027 113.01133494 -37.32103998 112.0161846 -36 111 C-35.34 111 -34.68 111 -34 111 C-34 110.34 -34 109.68 -34 109 C-33.34 109 -32.68 109 -32 109 C-32 108.34 -32 107.68 -32 107 C-31.34 107 -30.68 107 -30 107 C-29.5978125 105.94232422 -29.5978125 105.94232422 -29.1875 104.86328125 C-27.52372165 100.85160517 -25.46537998 97.06823161 -23.4375 93.23046875 C-20.029319 85.57132287 -19.68152749 78.45479853 -19.5 70.1875 C-18.00407239 22.97629483 -18.00407239 22.97629483 -11 10 C-10.34 10 -9.68 10 -9 10 C-8.62875 8.63875 -8.62875 8.63875 -8.25 7.25 C-6.55149322 2.83388237 -4.96592058 0 0 0 Z " fill="#F2F2F1" transform="translate(244,182)"/>
<path d="M0 0 C-0.8125 1.9375 -0.8125 1.9375 -2 4 C-2.99 4.33 -3.98 4.66 -5 5 C-5 5.66 -5 6.32 -5 7 C-5.66 7 -6.32 7 -7 7 C-7.2784375 7.72445312 -7.556875 8.44890625 -7.84375 9.1953125 C-9.28193398 12.6838804 -11.022337 15.96918785 -12.78125 19.3046875 C-19.09450503 33.26669381 -18.34378701 49.80534409 -18.38085938 64.80883789 C-18.44838496 81.16184754 -20.72001288 96.08001931 -30 110 C-30.66 110 -31.32 110 -32 110 C-32.33 110.99 -32.66 111.98 -33 113 C-39.73200541 119.74958245 -47.77888014 122.15150724 -57.125 122.1875 C-58.75051404 122.14022051 -60.3759367 122.08336447 -62 122 C-62.33 121.01 -62.66 120.02 -63 119 C-62.154375 118.84144531 -61.30875 118.68289063 -60.4375 118.51953125 C-54.03424226 117.20249756 -48.81341929 115.85385254 -43.48828125 111.98828125 C-42 111 -42 111 -40 111 C-39.7525 110.484375 -39.505 109.96875 -39.25 109.4375 C-38 107 -38 107 -36.0625 103.875 C-31.84307989 96.56973533 -29.88845251 87.7855701 -29.8581543 79.40625 C-29.85111984 78.30740479 -29.84408539 77.20855957 -29.83683777 76.07641602 C-29.83267349 74.89619873 -29.82850922 73.71598145 -29.82421875 72.5 C-29.80100776 69.97785635 -29.77688992 67.45572092 -29.75195312 64.93359375 C-29.71696572 60.97536823 -29.68755943 57.01744278 -29.67407227 53.05908203 C-29.65847324 49.22652075 -29.61817564 45.39482796 -29.57421875 41.5625 C-29.57612717 40.39847656 -29.57803558 39.23445313 -29.58000183 38.03515625 C-29.41985695 27.11929003 -27.40022788 16.37394207 -20 8 C-19.34 8 -18.68 8 -18 8 C-18 7.34 -18 6.68 -18 6 C-16.41925436 5.18247697 -14.83528777 4.37118003 -13.25 3.5625 C-12.36828125 3.11003906 -11.4865625 2.65757812 -10.578125 2.19140625 C-6.75001599 0.42235588 -4.25968857 0 0 0 Z " fill="#C22626" transform="translate(243,178)"/>
<path d="M0 0 C0.99 0.33 1.98 0.66 3 1 C4.76671388 5.61336273 5.41920961 7.75358748 3.83203125 12.47265625 C3.1814878 13.68172493 2.50651656 14.87785032 1.8125 16.0625 C1.05172521 17.46714963 0.29409531 18.8735056 -0.4609375 20.28125 C-0.87311523 21.03664062 -1.28529297 21.79203125 -1.70996094 22.5703125 C-4.05938895 26.99527609 -6.17083375 31.53437291 -8.3125 36.0625 C-9.25229703 38.03269862 -10.19240525 40.00274883 -11.1328125 41.97265625 C-13.0499445 45.99863344 -14.96016787 50.02781813 -16.8671875 54.05859375 C-19.54945048 59.71976275 -22.26024845 65.36643302 -25 71 C-25.36722168 71.75877441 -25.73444336 72.51754883 -26.11279297 73.29931641 C-30.33222407 81.93042136 -34.95833676 89.35740726 -42 96 C-42.82564453 96.78117187 -42.82564453 96.78117187 -43.66796875 97.578125 C-49.84346284 102.64050534 -59.08788014 105.39707665 -67 105 C-67 104.01 -67 103.02 -67 102 C-66.35933594 101.70867187 -65.71867188 101.41734375 -65.05859375 101.1171875 C-59.85013664 98.64879799 -55.55317227 96.12406103 -51.375 92.13671875 C-50 91 -50 91 -48 91 C-48 90.34 -48 89.68 -48 89 C-47.34 89 -46.68 89 -46 89 C-46 88.34 -46 87.68 -46 87 C-45.34 87 -44.68 87 -44 87 C-43.7525 86.29875 -43.505 85.5975 -43.25 84.875 C-42 82 -42 82 -40.1171875 79.26953125 C-37.93967021 75.90683388 -36.38488567 72.50013217 -34.875 68.8125 C-31.90124445 61.79092775 -28.5023166 55.07578319 -24.90600586 48.35522461 C-21.81637373 42.57561715 -18.84607615 36.74768328 -15.9375 30.875 C-12.02268495 22.98214066 -7.96648483 15.17561547 -3.8125 7.40625 C-2.50625559 4.95141137 -1.2229059 2.49676622 0 0 Z " fill="#B82926" transform="translate(275,217)"/>
<path d="M0 0 C1.125 3.75 1.125 3.75 0 6 C0.928125 5.938125 1.85625 5.87625 2.8125 5.8125 C6 6 6 6 7.875 7.4375 C9 9 9 9 9 10 C9.88671387 10.0501123 10.77342773 10.10022461 11.68701172 10.15185547 C15.02348763 10.3438171 18.35946389 10.54215976 21.6953125 10.74462891 C23.13038645 10.8304633 24.56560857 10.91386061 26.00097656 10.99462891 C36.82010644 11.60575131 46.99724342 12.53080053 57.125 16.625 C58.24132812 17.07101562 59.35765625 17.51703125 60.5078125 17.9765625 C61.33023438 18.31429688 62.15265625 18.65203125 63 19 C63 19.66 63 20.32 63 21 C64.98 21.66 66.96 22.32 69 23 C69 23.66 69 24.32 69 25 C69.598125 25.268125 70.19625 25.53625 70.8125 25.8125 C72.99847854 26.99917406 74.41332594 28.09599113 76 30 C76 30.66 76 31.32 76 32 C76.66 32 77.32 32 78 32 C79.38490744 33.8436029 80.68388849 35.75222264 81.9375 37.6875 C82.97197266 39.27111328 82.97197266 39.27111328 84.02734375 40.88671875 C84.67832031 41.91410156 85.32929688 42.94148438 86 44 C86.57878906 44.89332031 87.15757812 45.78664063 87.75390625 46.70703125 C89 49 89 49 89 52 C86.37812506 50.95125002 85.20628639 50.35068687 83.75 47.875 C83.5025 47.25625 83.255 46.6375 83 46 C82.34 46 81.68 46 81 46 C81 45.34 81 44.68 81 44 C80.43539062 43.74734375 79.87078125 43.4946875 79.2890625 43.234375 C76.68778898 41.83164048 74.63708965 40.15103951 72.375 38.25 C50.50888304 20.69372639 24.01193205 18.81382112 -3 17 C-3 16.34 -3 15.68 -3 15 C-5.97 14.505 -5.97 14.505 -9 14 C-9.33 12.68 -9.66 11.36 -10 10 C-9.01 10 -8.02 10 -7 10 C-6.34 7.69 -5.68 5.38 -5 3 C-4.360625 2.87625 -3.72125 2.7525 -3.0625 2.625 C-2.0415625 2.315625 -2.0415625 2.315625 -1 2 C-0.67 1.34 -0.34 0.68 0 0 Z M-2 11 C-2 11.33 -2 11.66 -2 12 C-0.02 12 1.96 12 4 12 C4 11.67 4 11.34 4 11 C2.02 11 0.04 11 -2 11 Z " fill="#CE2724" transform="translate(271,268)"/>
<path d="M0 0 C-1.33920741 3.60555842 -3.02548894 6.70914824 -5 10 C-5.69822617 11.65369357 -6.37498605 13.31727014 -7 15 C-7.66 15 -8.32 15 -9 15 C-9.33595222 16.99956176 -9.66843546 18.99970601 -10 21 C-10.11472656 21.6801416 -10.22945312 22.3602832 -10.34765625 23.06103516 C-12.30889461 34.89814086 -13.39259663 46.561913 -13.70898438 58.55981445 C-14.00233675 69.64549334 -14.00233675 69.64549334 -15 74 C-16.485 74.99 -16.485 74.99 -18 76 C-18.72965366 78.56282742 -18.72965366 78.56282742 -19 81 C-19.33 81 -19.66 81 -20 81 C-20.02554493 73.95655093 -20.04294803 66.91311399 -20.05493164 59.86962891 C-20.0599323 57.4780228 -20.06673498 55.08641971 -20.07543945 52.69482422 C-20.08769326 49.2392502 -20.09327114 45.78371693 -20.09765625 42.328125 C-20.10281754 41.27449768 -20.10797882 40.22087036 -20.11329651 39.13531494 C-20.114734 19.72003999 -20.114734 19.72003999 -17 14 C-16.67 12.824375 -16.34 11.64875 -16 10.4375 C-15 7 -15 7 -13 4 C-12.34 4 -11.68 4 -11 4 C-11 3.34 -11 2.68 -11 2 C-7.12315913 0.80712589 -4.08378077 0 0 0 Z " fill="#EB201D" transform="translate(236,182)"/>
<path d="M0 0 C9.21734856 0.70902681 16.45763493 6.8965001 23.6171875 12.23046875 C25.3757833 13.53644235 27.17740599 14.78493732 29 16 C29 16.66 29 17.32 29 18 C29.66 18 30.32 18 31 18 C31 18.66 31 19.32 31 20 C31.66 20 32.32 20 33 20 C33 20.66 33 21.32 33 22 C33.66 22 34.32 22 35 22 C35 22.66 35 23.32 35 24 C35.66 24 36.32 24 37 24 C37 24.66 37 25.32 37 26 C26.51490635 25.83380975 17.76213378 24.71629967 9.875 17.3125 C8 15 8 15 8 13 C7.34 13 6.68 13 6 13 C4.99491199 11.21118264 3.99607264 9.41885304 3 7.625 C2.1646875 6.12839844 2.1646875 6.12839844 1.3125 4.6015625 C0 2 0 2 0 0 Z " fill="#E3E3E1" transform="translate(320,295)"/>
<path d="M0 0 C0.99 0.33 1.98 0.66 3 1 C4.76671388 5.61336273 5.41920961 7.75358748 3.83203125 12.47265625 C3.1814878 13.68172493 2.50651656 14.87785032 1.8125 16.0625 C1.05172521 17.46714963 0.29409531 18.8735056 -0.4609375 20.28125 C-0.87311523 21.03664062 -1.28529297 21.79203125 -1.70996094 22.5703125 C-4.05938205 26.99526309 -6.17107051 31.53427287 -8.3125 36.0625 C-9.2456865 38.02102743 -10.17928629 39.97935799 -11.11328125 41.9375 C-11.58459473 42.9275 -12.0559082 43.9175 -12.54150391 44.9375 C-15.0230018 50.14806405 -17.51136213 55.35534337 -20 60.5625 C-20.45673096 61.51970947 -20.91346191 62.47691895 -21.3840332 63.46313477 C-23.54979529 67.99626669 -25.73234524 72.51690622 -28 77 C-29.19894445 73.40316664 -28.74361288 72.89571431 -27.125 69.625 C-25.88738352 67.02304864 -24.99351114 64.96683472 -24.4375 62.125 C-23.89564661 59.49314067 -22.91169697 58.83817017 -21 57 C-17.14048229 49.95218506 -14.14454373 42.38967777 -11 35 C-10.34 35 -9.68 35 -9 35 C-8.855625 33.948125 -8.71125 32.89625 -8.5625 31.8125 C-8.12473034 28.84539451 -7.62195134 25.93205634 -7 23 C-8.32 23.33 -9.64 23.66 -11 24 C-11.23783203 25.051875 -11.23783203 25.051875 -11.48046875 26.125 C-12.83166821 31.61938014 -14.33470575 36.08911745 -17.5390625 40.75 C-20.12381359 44.73079312 -22.18752771 49.02183006 -24.3515625 53.2421875 C-26 56 -26 56 -29 58 C-27.44548128 52.67386211 -25.05295541 48.04626096 -22.4375 43.1875 C-21.99422363 42.35436279 -21.55094727 41.52122559 -21.09423828 40.6628418 C-19.7335367 38.1063795 -18.36715372 35.55301639 -17 33 C-15.45517038 30.10584182 -13.91363868 27.20995404 -12.375 24.3125 C-12.01212891 23.62961914 -11.64925781 22.94673828 -11.27539062 22.24316406 C-7.38685888 14.89390863 -3.68202893 7.45435285 0 0 Z " fill="#A22B2A" transform="translate(275,217)"/>
<path d="M0 0 C0.66 0.33 1.32 0.66 2 1 C1.25749403 5.08378283 0.17076699 9.01939223 -1 13 C-1.66 13 -2.32 13 -3 13 C-3.103125 13.9075 -3.20625 14.815 -3.3125 15.75 C-4.02934923 19.1387418 -4.92212448 20.34031934 -7 23 C-7.433125 24.3303125 -7.433125 24.3303125 -7.875 25.6875 C-9.37785383 30.11256962 -11.65503428 33.97238712 -14 38 C-14.66 38 -15.32 38 -16 38 C-16.12375 39.0725 -16.2475 40.145 -16.375 41.25 C-16.89643936 44.37863615 -17.40088254 46.33480424 -19 49 C-20.65 49 -22.3 49 -24 49 C-23.34928813 42.62302364 -21.7429057 37.56181774 -18.12109375 32.23828125 C-15.89666316 28.84223528 -14.12412065 25.40303074 -12.375 21.75 C-9.26785714 15.26785714 -9.26785714 15.26785714 -7 13 C-6.49327017 11.55776894 -6.04043498 10.09612859 -5.625 8.625 C-4.43193354 4.8255422 -3.19337278 2.53267497 0 0 Z " fill="#E32320" transform="translate(267,239)"/>
<path d="M0 0 C1.125 3.75 1.125 3.75 0 6 C0.928125 5.938125 1.85625 5.87625 2.8125 5.8125 C6 6 6 6 7.875 7.4375 C9 9 9 9 9 10 C9.88671387 10.0501123 10.77342773 10.10022461 11.68701172 10.15185547 C15.02348763 10.3438171 18.35946389 10.54215976 21.6953125 10.74462891 C23.13038645 10.8304633 24.56560857 10.91386061 26.00097656 10.99462891 C36.82010644 11.60575131 46.99724342 12.53080053 57.125 16.625 C58.24132812 17.07101562 59.35765625 17.51703125 60.5078125 17.9765625 C61.33023438 18.31429688 62.15265625 18.65203125 63 19 C63 19.66 63 20.32 63 21 C64.98 21.66 66.96 22.32 69 23 C69 23.66 69 24.32 69 25 C69.61875 25.268125 70.2375 25.53625 70.875 25.8125 C73 27 73 27 75 30 C71.5536238 29.70459633 70.24813203 29.25967305 67.81640625 26.71484375 C64.50799662 23.52573877 61.22237395 21.74124715 57.125 19.75 C56.10212891 19.2240625 56.10212891 19.2240625 55.05859375 18.6875 C54.04345703 18.18476563 54.04345703 18.18476563 53.0078125 17.671875 C52.40598145 17.3737793 51.80415039 17.07568359 51.18408203 16.76855469 C44.80206978 14.52279406 37.73020858 14.72528034 31.03515625 14.46484375 C30.00184677 14.42186661 28.96853729 14.37888947 27.90391541 14.33460999 C24.62356952 14.19893156 21.34304984 14.06814456 18.0625 13.9375 C15.83006484 13.84602666 13.59764278 13.75423324 11.36523438 13.66210938 C5.91030235 13.43770031 0.45521958 13.21730029 -5 13 C-5.33 13.66 -5.66 14.32 -6 15 C-6.99 14.67 -7.98 14.34 -9 14 C-9.6875 11.9375 -9.6875 11.9375 -10 10 C-9.01 10 -8.02 10 -7 10 C-6.34 7.69 -5.68 5.38 -5 3 C-4.360625 2.87625 -3.72125 2.7525 -3.0625 2.625 C-2.0415625 2.315625 -2.0415625 2.315625 -1 2 C-0.67 1.34 -0.34 0.68 0 0 Z M-2 11 C-2 11.33 -2 11.66 -2 12 C-0.02 12 1.96 12 4 12 C4 11.67 4 11.34 4 11 C2.02 11 0.04 11 -2 11 Z " fill="#B13734" transform="translate(271,268)"/>
<path d="M0 0 C4.8688302 -0.19475321 8.43253587 0.37601275 13 2 C14.32 2 15.64 2 17 2 C17 2.66 17 3.32 17 4 C17.99 4 18.98 4 20 4 C20 4.99 20 5.98 20 7 C20.99 6.01 21.98 5.02 23 4 C22.34 3.67 21.68 3.34 21 3 C21.33 2.34 21.66 1.68 22 1 C23.7074998 2.28062485 25.37373596 3.61767557 27 5 C27 5.66 27 6.32 27 7 C29.97 7.495 29.97 7.495 33 8 C33 8.66 33 9.32 33 10 C33.66 10 34.32 10 35 10 C36.38490744 11.8436029 37.68388849 13.75222264 38.9375 15.6875 C39.62714844 16.74324219 40.31679688 17.79898437 41.02734375 18.88671875 C42.00380859 20.42779297 42.00380859 20.42779297 43 22 C43.57878906 22.89332031 44.15757812 23.78664063 44.75390625 24.70703125 C46 27 46 27 46 30 C43.37812506 28.95125002 42.20628639 28.35068687 40.75 25.875 C40.5025 25.25625 40.255 24.6375 40 24 C39.34 24 38.68 24 38 24 C38 23.34 38 22.68 38 22 C37.43539062 21.74734375 36.87078125 21.4946875 36.2890625 21.234375 C33.68778898 19.83164048 31.63708965 18.15103951 29.375 16.25 C20.18973359 8.84555054 11.12627261 4.62325304 0 1 C0 0.67 0 0.34 0 0 Z " fill="#E6241E" transform="translate(314,290)"/>
<path d="M0 0 C-0.8125 1.9375 -0.8125 1.9375 -2 4 C-2.99 4.33 -3.98 4.66 -5 5 C-5 5.66 -5 6.32 -5 7 C-5.66 7 -6.32 7 -7 7 C-7.2784375 7.72445312 -7.556875 8.44890625 -7.84375 9.1953125 C-9.28193398 12.6838804 -11.022337 15.96918785 -12.78125 19.3046875 C-19.21713436 33.53789329 -18.33952483 50.41244215 -18.53173828 65.71411133 C-18.56542383 68.15726238 -18.61045269 70.60001955 -18.65625 73.04296875 C-18.6615271 73.78459763 -18.6668042 74.5262265 -18.67224121 75.29032898 C-18.74426406 79.00602146 -18.94299153 81.84109602 -21 85 C-21.73625835 34.78718059 -21.73625835 34.78718059 -16 19 C-15.34 19 -14.68 19 -14 19 C-13.8453125 17.9171875 -13.8453125 17.9171875 -13.6875 16.8125 C-12.92807244 13.70575088 -11.73748869 11.67305952 -10 9 C-9.443125 8.071875 -8.88625 7.14375 -8.3125 6.1875 C-7.6628125 5.1046875 -7.6628125 5.1046875 -7 4 C-9.97 4.66 -12.94 5.32 -16 6 C-13.16975328 3.16975328 -12.16226003 2.45980969 -8.5625 1.3125 C-7.80066406 1.06113281 -7.03882813 0.80976563 -6.25390625 0.55078125 C-4 0 -4 0 0 0 Z " fill="#B63230" transform="translate(243,178)"/>
<path d="M0 0 C13.78767209 -0.90642838 24.03779081 -0.20305069 36 7 C36 7.99 36 8.98 36 10 C36.99 10.33 37.98 10.66 39 11 C38.34 11.99 37.68 12.98 37 14 C36.34 14 35.68 14 35 14 C35 13.01 35 12.02 35 11 C34.01 11 33.02 11 32 11 C32 10.34 32 9.68 32 9 C31.278125 9.20625 30.55625 9.4125 29.8125 9.625 C26.46352785 10.07152962 25.07100301 9.31614415 22 8 C19.67402489 7.6186926 17.34087842 7.27539746 15 7 C15 6.34 15 5.68 15 5 C12.03 4.505 12.03 4.505 9 4 C9 3.34 9 2.68 9 2 C6.03 2 3.06 2 0 2 C0 1.34 0 0.68 0 0 Z " fill="#E8211E" transform="translate(299,283)"/>
<path d="M0 0 C2.64 0 5.28 0 8 0 C7.67 1.98 7.34 3.96 7 6 C6.34 5.34 5.68 4.68 5 4 C3.02 8.29 1.04 12.58 -1 17 C-1.66 17 -2.32 17 -3 17 C-2.67 18.32 -2.34 19.64 -2 21 C-0.02 21.33 1.96 21.66 4 22 C4 22.66 4 23.32 4 24 C-0.62 24 -5.24 24 -10 24 C-8.875 17.25 -8.875 17.25 -6.93359375 13.4765625 C-6.53076172 12.68378906 -6.12792969 11.89101563 -5.71289062 11.07421875 C-5.08157227 9.86185547 -5.08157227 9.86185547 -4.4375 8.625 C-4.01275391 7.79355469 -3.58800781 6.96210938 -3.15039062 6.10546875 C-2.10745654 4.06647401 -1.05721708 2.0316151 0 0 Z " fill="#D3CFCD" transform="translate(264,261)"/>
<path d="M0 0 C0.66 0.33 1.32 0.66 2 1 C1.67 1.99 1.34 2.98 1 4 C0.34 4 -0.32 4 -1 4 C-1.66 5.32 -2.32 6.64 -3 8 C-3.66 8 -4.32 8 -5 8 C-5 8.66 -5 9.32 -5 10 C-0.05 8.515 -0.05 8.515 5 7 C-0.80082317 13.52592607 -7.5207657 16.33195391 -16 18 C-19 18.125 -19 18.125 -21 18 C-21 17.01 -21 16.02 -21 15 C-20.35933594 14.70867187 -19.71867188 14.41734375 -19.05859375 14.1171875 C-13.85013664 11.64879799 -9.55317227 9.12406103 -5.375 5.13671875 C-4 4 -4 4 -2 4 C-2 3.34 -2 2.68 -2 2 C-1.34 2 -0.68 2 0 2 C0 1.34 0 0.68 0 0 Z " fill="#C12825" transform="translate(229,304)"/>
<path d="M0 0 C0.99 0.33 1.98 0.66 3 1 C5.56504134 7.46836511 5.56504134 7.46836511 4.23046875 11.0859375 C3.125 13 3.125 13 1 16 C0.34 16 -0.32 16 -1 16 C-1 16.66 -1 17.32 -1 18 C-2.98 18.99 -4.96 19.98 -7 21 C-8.14276886 12.67411261 -4.14496377 6.93646998 0 0 Z " fill="#C02C27" transform="translate(275,217)"/>
<path d="M0 0 C0.495 0.99 0.495 0.99 1 2 C0.07421875 3.9453125 0.07421875 3.9453125 -1.3125 6.125 C-1.76238281 6.84945313 -2.21226562 7.57390625 -2.67578125 8.3203125 C-3.11277344 8.87460937 -3.54976562 9.42890625 -4 10 C-4.66 10 -5.32 10 -6 10 C-6.33 10.99 -6.66 11.98 -7 13 C-13.73200541 19.74958245 -21.77888014 22.15150724 -31.125 22.1875 C-32.75051404 22.14022051 -34.3759367 22.08336447 -36 22 C-36.33 21.01 -36.66 20.02 -37 19 C-36.154375 18.84144531 -35.30875 18.68289063 -34.4375 18.51953125 C-27.99211833 17.19383343 -22.80261917 15.85077403 -17.48828125 11.890625 C-16.99714844 11.59671875 -16.50601563 11.3028125 -16 11 C-15.34 11.33 -14.68 11.66 -14 12 C-15.98 12.99 -15.98 12.99 -18 14 C-18 14.66 -18 15.32 -18 16 C-18.66 16.33 -19.32 16.66 -20 17 C-16.39007621 16.34414811 -16.39007621 16.34414811 -13 15 C-12.7525 14.360625 -12.505 13.72125 -12.25 13.0625 C-11 11 -11 11 -7.9375 10 C-6.968125 9.67 -5.99875 9.34 -5 9 C-4.30840599 7.15274948 -4.30840599 7.15274948 -4 5 C-2.71937515 3.2925002 -1.3927289 1.61736259 0 0 Z " fill="#9D2627" transform="translate(217,278)"/>
<path d="M0 0 C1.125 3.75 1.125 3.75 0 6 C0.928125 5.938125 1.85625 5.87625 2.8125 5.8125 C6 6 6 6 7.875 7.4375 C9 9 9 9 9 10 C15.6 10.33 22.2 10.66 29 11 C29 11.33 29 11.66 29 12 C16.79 12 4.58 12 -8 12 C-6.68 8.7 -5.36 5.4 -4 2 C-3.01 2 -2.02 2 -1 2 C-0.67 1.34 -0.34 0.68 0 0 Z " fill="#522725" transform="translate(271,268)"/>
<path d="M0 0 C1 2 1 2 0.25 4.8125 C-1.44447407 9.13340888 -3.37078009 13.00194877 -7 16 C-7.66 16 -8.32 16 -9 16 C-9 17.32 -9 18.64 -9 20 C-12.72965139 22.03435531 -14.66905042 23 -19 23 C-19 21 -19 21 -17.125 18.875 C-15 17 -15 17 -13 17 C-12.95875 16.4225 -12.9175 15.845 -12.875 15.25 C-12 13 -12 13 -9 11.0625 C-5.7812578 9.35001107 -5.7812578 9.35001107 -5.4375 6.5 C-5.293125 5.675 -5.14875 4.85 -5 4 C-2.4375 1.6875 -2.4375 1.6875 0 0 Z " fill="#E6211C" transform="translate(243,291)"/>
<path d="M0 0 C0.33 0.66 0.66 1.32 1 2 C1.66 2 2.32 2 3 2 C4.38490744 3.8436029 5.68388849 5.75222264 6.9375 7.6875 C7.62714844 8.74324219 8.31679688 9.79898437 9.02734375 10.88671875 C9.67832031 11.91410156 10.32929688 12.94148438 11 14 C11.57878906 14.89332031 12.15757812 15.78664063 12.75390625 16.70703125 C14 19 14 19 14 22 C11.37812506 20.95125002 10.20628639 20.35068687 8.75 17.875 C8.5025 17.25625 8.255 16.6375 8 16 C7.34 16 6.68 16 6 16 C6 15.34 6 14.68 6 14 C5.401875 13.7525 4.80375 13.505 4.1875 13.25 C1.71352479 11.83629988 0.56629745 10.34944617 -1 8 C-0.01 8 0.98 8 2 8 C2 6.68 2 5.36 2 4 C1.34 4 0.68 4 0 4 C0 2.68 0 1.36 0 0 Z " fill="#B32D2A" transform="translate(346,298)"/>
<path d="M0 0 C6.15017373 -0.32947359 10.39708929 0.52714478 16 3 C17.01900391 3.42925781 17.01900391 3.42925781 18.05859375 3.8671875 C19.71114321 4.56544783 21.35640067 5.28092529 23 6 C23 6.66 23 7.32 23 8 C24.98 8.66 26.96 9.32 29 10 C29 10.66 29 11.32 29 12 C29.928125 12.4021875 29.928125 12.4021875 30.875 12.8125 C33 14 33 14 35 17 C31.54962454 16.70425353 30.24564026 16.2565868 27.80859375 13.7109375 C24.53632141 10.55244376 21.30937854 8.77536037 17.25 6.8125 C16.54423828 6.46445312 15.83847656 6.11640625 15.11132812 5.7578125 C10.1368621 3.37335771 5.48826416 1.78403774 0 1 C0 0.67 0 0.34 0 0 Z " fill="#91332A" transform="translate(311,281)"/>
<path d="M0 0 C-0.8125 1.9375 -0.8125 1.9375 -2 4 C-2.99 4.33 -3.98 4.66 -5 5 C-5 5.66 -5 6.32 -5 7 C-5.66 7 -6.32 7 -7 7 C-7.27585938 7.71542969 -7.55171875 8.43085938 -7.8359375 9.16796875 C-8.98248522 11.95738855 -10.26227115 14.62290358 -11.625 17.3125 C-12.29402344 18.63701172 -12.29402344 18.63701172 -12.9765625 19.98828125 C-13.48316406 20.98408203 -13.48316406 20.98408203 -14 22 C-15.37865891 17.86402327 -13.97864319 16.10798653 -12.19140625 12.296875 C-10.66228999 9.3489394 -8.93580534 6.6963003 -7 4 C-9.97 4.66 -12.94 5.32 -16 6 C-13.16975328 3.16975328 -12.16226003 2.45980969 -8.5625 1.3125 C-7.80066406 1.06113281 -7.03882813 0.80976563 -6.25390625 0.55078125 C-4 0 -4 0 0 0 Z " fill="#A52728" transform="translate(243,178)"/>
<path d="M0 0 C4.8688302 -0.19475321 8.43253587 0.37601275 13 2 C14.32 2 15.64 2 17 2 C17 2.66 17 3.32 17 4 C17.99 4 18.98 4 20 4 C20 5.32 20 6.64 20 8 C20.8971875 8.1546875 20.8971875 8.1546875 21.8125 8.3125 C24.28243264 9.08876455 25.32251235 10.07088921 27 12 C23.47053844 12 22.57355215 11.2381516 19.6875 9.3125 C13.46750236 5.43306443 6.94052263 3.26017019 0 1 C0 0.67 0 0.34 0 0 Z " fill="#DD2824" transform="translate(314,290)"/>
<path d="M0 0 C-1.68336724 4.53214258 -3.55341043 8.55341043 -7 12 C-7.33 9.69 -7.66 7.38 -8 5 C-8.99 5 -9.98 5 -11 5 C-11.33 5.99 -11.66 6.98 -12 8 C-14.0625 9.1875 -14.0625 9.1875 -16 10 C-15 8 -14 6 -13 4 C-12.34 4 -11.68 4 -11 4 C-11 3.34 -11 2.68 -11 2 C-7.12315913 0.80712589 -4.08378077 0 0 0 Z " fill="#DF2320" transform="translate(236,182)"/>
<path d="M0 0 C0.66 0 1.32 0 2 0 C1.41699322 4.25206279 -0.08202052 7.16826908 -2.3125 10.8125 C-4.45357519 14.36344475 -6.48674408 17.87207788 -8.25 21.625 C-10 25 -10 25 -13 27 C-11.38153273 21.33998874 -8.71146938 16.40558101 -5.9375 11.25 C-5.02993427 9.54688227 -4.12238155 7.84375761 -3.21484375 6.140625 C-2.81386475 5.39329102 -2.41288574 4.64595703 -1.99975586 3.87597656 C-1.3160147 2.59298094 -0.6501661 1.30033219 0 0 Z " fill="#A23431" transform="translate(259,248)"/>
<path d="M0 0 C0.5534764 2.07553648 1 3.84365964 1 6 C1.66 5.34 2.32 4.68 3 4 C1.98578782 16.25061549 1.98578782 16.25061549 -2.625 20.3125 C-3.40875 20.869375 -4.1925 21.42625 -5 22 C-4.50516814 19.77325662 -3.91492982 17.80602675 -2.99609375 15.7109375 C-1.93230174 12.81575455 -1.63433589 10.38230234 -1.4375 7.3125 C-1.09828393 2.19656786 -1.09828393 2.19656786 0 0 Z " fill="#DF2426" transform="translate(219,260)"/>
<path d="M0 0 C0.33 0 0.66 0 1 0 C1.22647063 4.06170158 1.42799496 8.12427108 1.625 12.1875 C1.68945312 13.33798828 1.75390625 14.48847656 1.8203125 15.67382812 C1.871875 16.78564453 1.9234375 17.89746094 1.9765625 19.04296875 C2.02893066 20.06414795 2.08129883 21.08532715 2.13525391 22.13745117 C1.99179477 25.17365764 1.28684147 27.26601086 0 30 C-0.33 30 -0.66 30 -1 30 C-1.10849626 19.93395765 -0.9767249 10.02887177 0 0 Z " fill="#969593" transform="translate(226,225)"/>
<path d="M0 0 C1.26070809 2.9798555 0.99119908 4.02316031 -0.1875 7.125 C-2.03936898 10.06244735 -2.73506701 11.03972559 -6 12 C-8.75 12.125 -8.75 12.125 -11 12 C-9.68 11.34 -8.36 10.68 -7 10 C-7 9.34 -7 8.68 -7 8 C-6.01 7.34 -5.02 6.68 -4 6 C-2.9590934 4.35857037 -1.95495674 2.69287785 -1 1 C-0.67 0.67 -0.34 0.34 0 0 Z M-13 12 C-11 13 -11 13 -11 13 Z " fill="#BC2524" transform="translate(206,284)"/>
<path d="M0 0 C0.66 0 1.32 0 2 0 C0.40300825 6.92029757 -4.12292826 13.08195217 -10 17 C-10 15.68 -10 14.36 -10 13 C-9.34 13 -8.68 13 -8 13 C-7.67 12.01 -7.34 11.02 -7 10 C-6.34 10 -5.68 10 -5 10 C-4.8453125 9.1028125 -4.8453125 9.1028125 -4.6875 8.1875 C-3.90088144 5.68462276 -2.86454169 4.78685245 -1 3 C-0.67 2.01 -0.34 1.02 0 0 Z " fill="#A92629" transform="translate(244,294)"/>
<path d="M0 0 C0.66 0 1.32 0 2 0 C1.88601335 1.62580966 1.75844341 3.25067157 1.625 4.875 C1.55539063 5.77992188 1.48578125 6.68484375 1.4140625 7.6171875 C1 10 1 10 -1 12 C-1.6425235 14.06874034 -1.6425235 14.06874034 -2 16 C-2.99 15.67 -3.98 15.34 -5 15 C-4.69191406 14.44699219 -4.38382813 13.89398438 -4.06640625 13.32421875 C-2.91036799 10.80464817 -2.41659712 8.53811977 -1.9375 5.8125 C-1.10320285 1.10320285 -1.10320285 1.10320285 0 0 Z " fill="#EC1F19" transform="translate(216,267)"/>
<path d="M0 0 C0.66 0.33 1.32 0.66 2 1 C-4.3327492 4.28874656 -9.87391001 5.70245971 -17 6 C-17 5.01 -17 4.02 -17 3 C-15.02 2.34 -13.04 1.68 -11 1 C-11 1.66 -11 2.32 -11 3 C-7.88172983 2.56489253 -5.17319151 2.07085107 -2.25 0.875 C-1.13625 0.441875 -1.13625 0.441875 0 0 Z " fill="#7C2D2D" transform="translate(225,316)"/>
<path d="M0 0 C2.37531394 -0.0543965 4.74935883 -0.09385864 7.125 -0.125 C7.79015625 -0.14175781 8.4553125 -0.15851563 9.140625 -0.17578125 C13.49516056 -0.21847278 16.95600114 0.40003783 21 2 C21 2.66 21 3.32 21 4 C13.97234063 3.17321655 6.99001647 2.09751783 0 1 C0 0.67 0 0.34 0 0 Z " fill="#9C2A2A" transform="translate(293,286)"/>
<path d="M0 0 C0.33 0 0.66 0 1 0 C1.29563927 6.50406395 0.15261839 12.61432583 -1 19 C-1.33596314 20.99955992 -1.67004144 22.99944046 -2 25 C-2.33 25 -2.66 25 -3 25 C-3.16206723 16.37442193 -3.13391701 8.14818424 0 0 Z " fill="#A83531" transform="translate(227,197)"/>
<path d="M0 0 C0.66 0 1.32 0 2 0 C2 1.32 2 2.64 2 4 C2.66 4 3.32 4 4 4 C4 5.32 4 6.64 4 8 C1.6875 8.3125 1.6875 8.3125 -1 8 C-2.8125 5.5 -2.8125 5.5 -4 3 C-2.68 3.33 -1.36 3.66 0 4 C0 2.68 0 1.36 0 0 Z " fill="#CC2824" transform="translate(344,298)"/>
<path d="M0 0 C3.2542015 2.83430453 4.5206753 4.68607774 5 9 C2.37812506 7.95125002 1.20628639 7.35068687 -0.25 4.875 C-0.4975 4.25625 -0.745 3.6375 -1 3 C-1.66 3 -2.32 3 -3 3 C-3 2.34 -3 1.68 -3 1 C-2.01 0.67 -1.02 0.34 0 0 Z " fill="#82302D" transform="translate(355,311)"/>
<path d="M0 0 C3.14737182 0.69941596 6.02588876 1.76078698 9 3 C9 3.66 9 4.32 9 5 C5.7 5 2.4 5 -1 5 C-0.67 3.35 -0.34 1.7 0 0 Z " fill="#C92C2A" transform="translate(267,273)"/>
<path d="M0 0 C0.66 0.33 1.32 0.66 2 1 C1.67 1.99 1.34 2.98 1 4 C0.34 4 -0.32 4 -1 4 C-1.20625 4.598125 -1.4125 5.19625 -1.625 5.8125 C-3.53549209 8.85191923 -5.71404225 9.69930839 -9 11 C-9.66 10.67 -10.32 10.34 -11 10 C-9.8803014 8.99406757 -8.7540588 7.9954151 -7.625 7 C-6.99851563 6.443125 -6.37203125 5.88625 -5.7265625 5.3125 C-4 4 -4 4 -2 4 C-2 3.34 -2 2.68 -2 2 C-1.34 2 -0.68 2 0 2 C0 1.34 0 0.68 0 0 Z " fill="#8F302D" transform="translate(229,304)"/>
<path d="M0 0 C4.56454251 0.54339792 7.9728176 1.79463821 12 4 C8.71023192 5.09658936 7.28696233 4.79953138 4 4 C3.67 4.99 3.34 5.98 3 7 C0 2.25 0 2.25 0 0 Z " fill="#9E9E9E" transform="translate(320,295)"/>
<path d="M0 0 C0 0.99 0 1.98 0 3 C-4.43076923 5.09230769 -4.43076923 5.09230769 -7.3125 4.625 C-7.869375 4.41875 -8.42625 4.2125 -9 4 C-6.56225426 0.2214941 -6.56225426 0.2214941 -3.9375 -0.8125 C-2 -1 -2 -1 0 0 Z " fill="#BE2D2F" transform="translate(222,315)"/>
<path d="M0 0 C0.33 0 0.66 0 1 0 C1.36630156 3.93774177 1.30233203 5.56539771 -1 8.875 C-1.66 9.57625 -2.32 10.2775 -3 11 C-3.99 10.34 -4.98 9.68 -6 9 C-5.566875 8.443125 -5.13375 7.88625 -4.6875 7.3125 C-2.92891017 4.98072351 -2.92891017 4.98072351 -1.375 2.25 C-0.92125 1.5075 -0.4675 0.765 0 0 Z " fill="#EB201B" transform="translate(260,255)"/>
<path d="M0 0 C0.33 0.66 0.66 1.32 1 2 C1.66 2 2.32 2 3 2 C4.5078125 3.96875 4.5078125 3.96875 6.125 6.5 C6.66382813 7.3353125 7.20265625 8.170625 7.7578125 9.03125 C8.37269531 10.00578125 8.37269531 10.00578125 9 11 C8.67 11.66 8.34 12.32 8 13 C7.566875 12.360625 7.13375 11.72125 6.6875 11.0625 C5.08760823 8.73253997 5.08760823 8.73253997 2 8 C2 6.68 2 5.36 2 4 C1.34 4 0.68 4 0 4 C0 2.68 0 1.36 0 0 Z " fill="#972926" transform="translate(346,298)"/>
<path d="M0 0 C-1.2680467 3.80414011 -2.57913212 4.09067839 -6 6 C-7.34631825 6.98244845 -8.68441297 7.97676564 -10 9 C-11.32 8.34 -12.64 7.68 -14 7 C-13.46890625 6.74605469 -12.9378125 6.49210937 -12.390625 6.23046875 C-8.70635759 4.43539685 -3.8788356 0 0 0 Z " fill="#A6A6A4" transform="translate(210,293)"/>
<path d="M0 0 C0.66 0.33 1.32 0.66 2 1 C1.50168276 4.68754757 0.89932357 6.60490662 -2 9 C-2.6875 7.3125 -2.6875 7.3125 -3 5 C-1.5625 2.25 -1.5625 2.25 0 0 Z " fill="#E8211D" transform="translate(267,239)"/>
<path d="M0 0 C0.99 0.33 1.98 0.66 3 1 C2.34 1 1.68 1 1 1 C0.72414062 1.71542969 0.44828125 2.43085938 0.1640625 3.16796875 C-0.98248522 5.95738855 -2.26227115 8.62290358 -3.625 11.3125 C-4.07101563 12.19550781 -4.51703125 13.07851562 -4.9765625 13.98828125 C-5.31429687 14.65214844 -5.65203125 15.31601563 -6 16 C-7.38748664 11.83754009 -5.9231527 9.99762416 -4.125 6.1640625 C-2.952447 3.90852652 -1.66999682 1.92049634 0 0 Z " fill="#9A302F" transform="translate(235,184)"/>
<path d="M0 0 C3.76314135 0.60914159 6.83503926 1.6879685 10.25 3.375 C11.55710937 4.00535156 11.55710937 4.00535156 12.890625 4.6484375 C15 6 15 6 16 9 C10.11856581 6.978257 5.13792847 3.42528565 0 0 Z " fill="#9F342E" transform="translate(325,294)"/>
<path d="M0 0 C1.65 0 3.3 0 5 0 C5 0.66 5 1.32 5 2 C10.94 1.505 10.94 1.505 17 1 C17 1.33 17 1.66 17 2 C13.32612505 2.85298376 9.9552607 3.10789471 6.1875 3.0625 C5.21167969 3.05347656 4.23585937 3.04445313 3.23046875 3.03515625 C2.49441406 3.02355469 1.75835937 3.01195312 1 3 C0.67 2.01 0.34 1.02 0 0 Z " fill="#743531" transform="translate(180,297)"/>
<path d="M0 0 C0.6875 1.8125 0.6875 1.8125 1 4 C-0.5342548 6.18025682 -1.64333489 6.88790525 -4.1875 7.6875 C-4.785625 7.790625 -5.38375 7.89375 -6 8 C-4.73058503 4.08597051 -3.48832306 2.20927127 0 0 Z " fill="#C22E2B" transform="translate(237,296)"/>
<path d="M0 0 C4.62 0 9.24 0 14 0 C14 0.33 14 0.66 14 1 C12.7625 1.12375 11.525 1.2475 10.25 1.375 C7.1237803 1.75746305 4.71120763 2.30549523 2 4 C2 3.34 2 2.68 2 2 C1.34 2 0.68 2 0 2 C0 1.34 0 0.68 0 0 Z " fill="#C32426" transform="translate(266,281)"/>
<path d="M0 0 C1 3 1 3 -0.25 5.625 C-2 8 -2 8 -5 9 C-3.90931332 5.22454612 -3.0916909 2.52956528 0 0 Z " fill="#E8221B" transform="translate(273,229)"/>
<path d="M0 0 C0.33 0 0.66 0 1 0 C0.58846263 4.97093824 0.20399168 9.44508386 -2 14 C-2.97919756 10.92449216 -2.98561151 8.97555928 -2.125 5.875 C-1.94195312 5.19179688 -1.75890625 4.50859375 -1.5703125 3.8046875 C-1 2 -1 2 0 0 Z " fill="#A02F31" transform="translate(221,264)"/>
<path d="M0 0 C0.33 0.66 0.66 1.32 1 2 C0.07421875 3.9453125 0.07421875 3.9453125 -1.3125 6.125 C-1.98732422 7.21167969 -1.98732422 7.21167969 -2.67578125 8.3203125 C-3.11277344 8.87460937 -3.54976562 9.42890625 -4 10 C-4.66 10 -5.32 10 -6 10 C-6.33 10.66 -6.66 11.32 -7 12 C-7 11.01 -7 10.02 -7 9 C-6.34 9 -5.68 9 -5 9 C-4.9175 8.443125 -4.835 7.88625 -4.75 7.3125 C-3.77389987 4.30285794 -2.04811186 2.37845248 0 0 Z " fill="#8E2D2C" transform="translate(217,278)"/>
<path d="M0 0 C0.99 0.33 1.98 0.66 3 1 C3 2.32 3 3.64 3 5 C1.68 5 0.36 5 -1 5 C-1 5.66 -1 6.32 -1 7 C-1.66 7 -2.32 7 -3 7 C-1.125 1.125 -1.125 1.125 0 0 Z " fill="#923434" transform="translate(275,217)"/>
<path d="M0 0 C0.33 0.66 0.66 1.32 1 2 C1.66 2.33 2.32 2.66 3 3 C-0.13498292 4.85776765 -2.37471432 5.20140476 -6 5 C-4.68 4.34 -3.36 3.68 -2 3 C-2 2.34 -2 1.68 -2 1 C-1.34 0.67 -0.68 0.34 0 0 Z M-8 5 C-6 6 -6 6 -6 6 Z " fill="#D02823" transform="translate(201,291)"/>
<path d="M0 0 C0.33 0.99 0.66 1.98 1 3 C0.67 3.66 0.34 4.32 0 5 C-0.66 5 -1.32 5 -2 5 C-2.28875 5.804375 -2.5775 6.60875 -2.875 7.4375 C-4 10 -4 10 -6 11 C-4.55662437 7.11398869 -2.98188088 2.98188088 0 0 Z " fill="#ACACAB" transform="translate(269,179)"/>
<path d="M0 0 C5.4611399 0.35233161 5.4611399 0.35233161 8 1 C9.5 3.0625 9.5 3.0625 10 5 C5 3 5 3 0 1 C0 0.67 0 0.34 0 0 Z " fill="#AC312C" transform="translate(322,284)"/>
<path d="M0 0 C2.64 0 5.28 0 8 0 C7.67 1.98 7.34 3.96 7 6 C6.34 5.34 5.68 4.68 5 4 C4.01 4.495 4.01 4.495 3 5 C3 3.68 3 2.36 3 1 C2.01 0.67 1.02 0.34 0 0 Z " fill="#89888A" transform="translate(264,261)"/>
<path d="M0 0 C3.25 -0.25 3.25 -0.25 7 0 C8.32 1.32 9.64 2.64 11 4 C7.37 3.01 3.74 2.02 0 1 C0 0.67 0 0.34 0 0 Z " fill="#9C2D2C" transform="translate(314,290)"/>
<path d="M0 0 C0.66 0 1.32 0 2 0 C0.98823563 3.40320742 0.35156418 4.75725331 -2.625 6.8125 C-3.40875 7.204375 -4.1925 7.59625 -5 8 C-4 6 -3 4 -2 2 C-1.34 2 -0.68 2 0 2 C0 1.34 0 0.68 0 0 Z " fill="#9B2325" transform="translate(225,184)"/>
<path d="M0 0 C-1.75 3.875 -1.75 3.875 -4 5 C-4 4.01 -4 3.02 -4 2 C-5.32 1.67 -6.64 1.34 -8 1 C-5.10765685 0.17361624 -3.11257569 0 0 0 Z " fill="#732E30" transform="translate(243,178)"/>
<path d="M0 0 C2.64 0.99 5.28 1.98 8 3 C8 3.33 8 3.66 8 4 C5.36 4 2.72 4 0 4 C0 2.68 0 1.36 0 0 Z " fill="#FCEFEE" transform="translate(259,280)"/>
</svg>
